<?xml version="1.0" encoding="UTF-8" standalone="no"?>
<!DOCTYPE svg PUBLIC "-//W3C//DTD SVG 1.1//EN" "http://www.w3.org/Graphics/SVG/1.1/DTD/svg11.dtd">
<svg width="100%" height="100%" viewBox="0 0 76 77" version="1.1" xmlns="http://www.w3.org/2000/svg" xmlns:xlink="http://www.w3.org/1999/xlink" xml:space="preserve" xmlns:serif="http://www.serif.com/" style="fill-rule:evenodd;clip-rule:evenodd;stroke-linejoin:round;stroke-miterlimit:2;">
    <g transform="matrix(1,0,0,1,-1345,-2230)">
        <path id="bg-ico" serif:id="bg ico" d="M1383,2230C1403.99,2230 1421,2247.01 1421,2268C1421,2288.99 1403.99,2306 1383,2306C1362.01,2306 1345,2288.99 1345,2268C1345,2247.01 1362.01,2230 1383,2230Z" style="fill:rgb(35,35,35);"/>
        <path id="Graphics" d="M1398.65,2258.35L1382,2275L1376,2275L1376,2269L1392.65,2252.35C1392.89,2252.11 1393.19,2252 1393.5,2252C1393.81,2252 1394.11,2252.11 1394.35,2252.35L1398.65,2256.65C1398.89,2256.89 1399,2257.19 1399,2257.5C1399,2257.81 1398.89,2258.11 1398.65,2258.35ZM1393.5,2255.5L1379,2270L1379,2272L1381,2272L1395.5,2257.5L1393.5,2255.5ZM1382.5,2257L1370,2257L1370,2281L1394,2281L1394,2268.5C1394,2267.67 1394.67,2267 1395.5,2267C1396.33,2267 1397,2267.67 1397,2268.5L1397,2282C1397,2283.1 1396.11,2284 1395,2284L1369,2284C1367.9,2284 1367,2283.1 1367,2282L1367,2256C1367,2254.89 1367.9,2254 1369,2254L1382.5,2254C1383.33,2254 1384,2254.67 1384,2255.5C1384,2256.33 1383.33,2257 1382.5,2257Z" style="fill:white;"/>
    </g>
</svg>
