<?xml version="1.0" encoding="UTF-8" standalone="no"?>
<!DOCTYPE svg PUBLIC "-//W3C//DTD SVG 1.1//EN" "http://www.w3.org/Graphics/SVG/1.1/DTD/svg11.dtd">
<svg width="100%" height="100%" viewBox="0 0 63 63" version="1.1" xmlns="http://www.w3.org/2000/svg" xmlns:xlink="http://www.w3.org/1999/xlink" xml:space="preserve" xmlns:serif="http://www.serif.com/" style="fill-rule:evenodd;clip-rule:evenodd;stroke-linejoin:round;stroke-miterlimit:2;">
    <g transform="matrix(1,0,0,1,-1064,-7640)">
        <path id="bg-ico" serif:id="bg ico" d="M1095,7640C1112.12,7640 1126,7653.88 1126,7671C1126,7688.12 1112.12,7702 1095,7702C1077.88,7702 1064,7688.12 1064,7671C1064,7653.88 1077.88,7640 1095,7640Z" style="fill:rgb(255,203,5);"/>
        <path id="g-" serif:id="g+" d="M1100.52,7669.32L1100.52,7673.06C1099.46,7678.53 1094.58,7682.66 1089.01,7682.66C1082.65,7682.66 1077.5,7677.28 1077.5,7670.66C1077.5,7664.03 1082.65,7658.66 1089.01,7658.66C1092.15,7658.66 1094.99,7659.96 1097.07,7662.09L1094.47,7665.03C1093.08,7663.57 1091.15,7662.66 1089.01,7662.66C1084.77,7662.66 1081.34,7666.24 1081.34,7670.66C1081.34,7675.07 1084.77,7678.66 1089.01,7678.66C1092.44,7678.66 1095.35,7676.31 1096.33,7673.06L1089.78,7673.06L1089.78,7669.32L1100.52,7669.32ZM1111.15,7665.99L1111.15,7669.85L1115,7669.85L1115,7673.15L1111.15,7673.15L1111.15,7677.01L1107.85,7677.01L1107.85,7673.15L1104,7673.15L1104,7669.85L1107.85,7669.85L1107.85,7665.99L1111.15,7665.99Z"/>
    </g>
</svg>
