<?xml version="1.0" encoding="UTF-8" standalone="no"?>
<!DOCTYPE svg PUBLIC "-//W3C//DTD SVG 1.1//EN" "http://www.w3.org/Graphics/SVG/1.1/DTD/svg11.dtd">
<svg width="100%" height="100%" viewBox="0 0 63 63" version="1.1" xmlns="http://www.w3.org/2000/svg" xmlns:xlink="http://www.w3.org/1999/xlink" xml:space="preserve" xmlns:serif="http://www.serif.com/" style="fill-rule:evenodd;clip-rule:evenodd;stroke-linejoin:round;stroke-miterlimit:2;">
    <g transform="matrix(1,0,0,1,-873,-7640)">
        <path id="bg-ico" serif:id="bg ico" d="M904,7640C921.121,7640 935,7653.88 935,7671C935,7688.12 921.121,7702 904,7702C886.879,7702 873,7688.12 873,7671C873,7653.88 886.879,7640 904,7640Z" style="fill:rgb(255,203,5);"/>
        <path id="instagram" d="M909.975,7658C913.849,7658 917,7661.15 917,7665.03L917,7676.98C917,7680.85 913.849,7684 909.975,7684L898.025,7684C894.151,7684 891,7680.85 891,7676.98L891,7665.03C891,7661.15 894.151,7658 898.025,7658L909.975,7658ZM909.975,7660.1L898.025,7660.1C895.308,7660.1 893.101,7662.31 893.101,7665.03L893.101,7676.98C893.101,7679.69 895.31,7681.9 898.025,7681.9L909.975,7681.9C912.691,7681.9 914.899,7679.69 914.899,7676.98L914.899,7665.03C914.899,7662.31 912.691,7660.1 909.975,7660.1ZM909.819,7670.09C909.634,7668.85 909.065,7667.72 908.174,7666.83C907.283,7665.93 906.153,7665.37 904.907,7665.18C904.339,7665.1 903.764,7665.1 903.196,7665.18C901.656,7665.41 900.297,7666.22 899.369,7667.48C898.441,7668.73 898.056,7670.26 898.285,7671.8C898.513,7673.34 899.328,7674.7 900.578,7675.63C901.594,7676.38 902.798,7676.78 904.039,7676.78C904.327,7676.78 904.617,7676.76 904.907,7676.72C906.447,7676.49 907.807,7675.67 908.734,7674.42C909.662,7673.17 910.047,7671.63 909.819,7670.09ZM904.599,7674.64C903.613,7674.78 902.63,7674.54 901.83,7673.94C901.03,7673.35 900.509,7672.48 900.362,7671.49C900.216,7670.51 900.463,7669.53 901.056,7668.73C901.65,7667.93 902.519,7667.4 903.505,7667.26C903.686,7667.23 903.869,7667.22 904.052,7667.22C904.234,7667.22 904.417,7667.23 904.599,7667.26C906.235,7667.5 907.498,7668.76 907.741,7670.4C908.043,7672.44 906.633,7674.34 904.599,7674.64ZM911.315,7663.69C911.119,7663.49 910.849,7663.38 910.572,7663.38C910.296,7663.38 910.025,7663.49 909.83,7663.69C909.634,7663.88 909.522,7664.15 909.522,7664.43C909.522,7664.7 909.634,7664.97 909.83,7665.17C910.025,7665.37 910.296,7665.48 910.572,7665.48C910.849,7665.48 911.119,7665.37 911.315,7665.17C911.51,7664.97 911.623,7664.7 911.623,7664.43C911.623,7664.15 911.51,7663.88 911.315,7663.69Z"/>
    </g>
</svg>
