<?xml version="1.0" encoding="UTF-8" standalone="no"?>
<!DOCTYPE svg PUBLIC "-//W3C//DTD SVG 1.1//EN" "http://www.w3.org/Graphics/SVG/1.1/DTD/svg11.dtd">
<svg width="100%" height="100%" viewBox="0 0 63 63" version="1.1" xmlns="http://www.w3.org/2000/svg" xmlns:xlink="http://www.w3.org/1999/xlink" xml:space="preserve" xmlns:serif="http://www.serif.com/" style="fill-rule:evenodd;clip-rule:evenodd;stroke-linejoin:round;stroke-miterlimit:2;">
    <g transform="matrix(1,0,0,1,-1254,-7640)">
        <path id="bg-ico" serif:id="bg ico" d="M1285,7640C1302.12,7640 1316,7653.88 1316,7671C1316,7688.12 1302.12,7702 1285,7702C1267.88,7702 1254,7688.12 1254,7671C1254,7653.88 1267.88,7640 1285,7640Z" style="fill:rgb(255,203,5);"/>
        <path id="vimeo" d="M1294.68,7660.6C1297.58,7660.67 1299.03,7662.31 1299.04,7665.5C1299.04,7665.71 1299.03,7665.93 1299.02,7666.15C1298.89,7668.87 1296.87,7672.56 1292.92,7677.23C1288.86,7682.13 1285.41,7684.58 1282.58,7684.59C1280.81,7684.59 1279.35,7683.09 1278.18,7680.1L1276.94,7675.98L1275.73,7671.88C1274.83,7668.9 1273.87,7667.42 1272.84,7667.42C1272.62,7667.42 1271.84,7667.85 1270.51,7668.72L1269.08,7667.05L1271.29,7665.23L1273.46,7663.42C1275.41,7661.87 1276.88,7661.04 1277.9,7660.91C1278.04,7660.9 1278.17,7660.89 1278.31,7660.89C1280.39,7660.89 1281.69,7662.38 1282.2,7665.35C1282.49,7667.05 1282.72,7668.43 1282.91,7669.49C1283.1,7670.55 1283.25,7671.29 1283.38,7671.71C1284.06,7674.52 1284.81,7675.94 1285.6,7675.95C1286.21,7675.95 1287.16,7675.03 1288.43,7673.2C1289.68,7671.32 1290.35,7669.92 1290.43,7669.01C1290.46,7668.83 1290.47,7668.65 1290.47,7668.5C1290.47,7667.27 1289.79,7666.65 1288.43,7666.65C1287.74,7666.65 1287.01,7666.8 1286.22,7667.08C1287.63,7662.77 1290.34,7660.61 1294.34,7660.6L1294.68,7660.6Z" style="fill-rule:nonzero;"/>
    </g>
</svg>
