<?xml version="1.0" encoding="UTF-8" standalone="no"?>
<!DOCTYPE svg PUBLIC "-//W3C//DTD SVG 1.1//EN" "http://www.w3.org/Graphics/SVG/1.1/DTD/svg11.dtd">
<svg width="100%" height="100%" viewBox="0 0 76 77" version="1.1" xmlns="http://www.w3.org/2000/svg" xmlns:xlink="http://www.w3.org/1999/xlink" xml:space="preserve" xmlns:serif="http://www.serif.com/" style="fill-rule:evenodd;clip-rule:evenodd;stroke-linejoin:round;stroke-miterlimit:2;">
    <g transform="matrix(1,0,0,1,-1345,-2492)">
        <path id="bg-ico" serif:id="bg ico" d="M1383,2492C1403.99,2492 1421,2509.01 1421,2530C1421,2550.99 1403.99,2568 1383,2568C1362.01,2568 1345,2550.99 1345,2530C1345,2509.01 1362.01,2492 1383,2492Z" style="fill:rgb(35,35,35);"/>
        <path id="Support" d="M1383,2514C1374.16,2514 1367,2521.16 1367,2530C1367,2538.84 1374.16,2546 1383,2546C1391.84,2546 1399,2538.84 1399,2530C1399,2521.16 1391.84,2514 1383,2514ZM1389.81,2518.94C1390.66,2519.46 1391.46,2520.08 1392.19,2520.81C1392.92,2521.54 1393.54,2522.34 1394.06,2523.19L1389.48,2525.32C1389.23,2524.98 1388.96,2524.65 1388.66,2524.34C1388.35,2524.04 1388.02,2523.77 1387.68,2523.52L1389.81,2518.94ZM1388,2530C1388,2532.76 1385.76,2535 1383,2535C1380.24,2535 1378,2532.76 1378,2530C1378,2527.24 1380.24,2525 1383,2525C1385.76,2525 1388,2527.24 1388,2530ZM1383,2517.02C1384.38,2517.02 1385.77,2517.24 1387.09,2517.68L1384.96,2522.25C1383.67,2521.93 1382.33,2521.93 1381.04,2522.25L1378.91,2517.68C1380.24,2517.24 1381.62,2517.02 1383,2517.02ZM1373.81,2520.81C1374.54,2520.08 1375.34,2519.46 1376.19,2518.94L1378.32,2523.52C1377.98,2523.77 1377.65,2524.03 1377.34,2524.34C1377.04,2524.65 1376.77,2524.98 1376.52,2525.32L1371.94,2523.19C1372.46,2522.34 1373.08,2521.54 1373.81,2520.81ZM1370.68,2534.09C1370.24,2532.76 1370.02,2531.38 1370.02,2530C1370.02,2528.62 1370.24,2527.23 1370.68,2525.91L1375.25,2528.04C1374.93,2529.33 1374.93,2530.67 1375.25,2531.96L1370.68,2534.09ZM1376.19,2541.06C1375.34,2540.54 1374.54,2539.92 1373.81,2539.19C1373.08,2538.46 1372.46,2537.66 1371.94,2536.81L1376.52,2534.68C1376.77,2535.02 1377.04,2535.35 1377.34,2535.66C1377.65,2535.96 1377.98,2536.23 1378.32,2536.48L1376.19,2541.06ZM1383,2542.98C1381.62,2542.98 1380.24,2542.76 1378.91,2542.32L1381.04,2537.75C1382.33,2538.07 1383.67,2538.07 1384.96,2537.75L1387.09,2542.32C1385.77,2542.76 1384.38,2542.98 1383,2542.98ZM1392.19,2539.19C1391.46,2539.92 1390.66,2540.54 1389.81,2541.06L1387.68,2536.48C1388.02,2536.23 1388.35,2535.97 1388.66,2535.66C1388.96,2535.35 1389.23,2535.02 1389.48,2534.68L1394.06,2536.81C1393.54,2537.66 1392.92,2538.46 1392.19,2539.19ZM1390.75,2531.96C1391.07,2530.67 1391.07,2529.33 1390.75,2528.04L1395.32,2525.91C1395.76,2527.24 1395.98,2528.62 1395.98,2530C1395.98,2531.38 1395.76,2532.76 1395.32,2534.09L1390.75,2531.96Z" style="fill:white;fill-rule:nonzero;"/>
    </g>
</svg>
