<?xml version="1.0" encoding="UTF-8" standalone="no"?>
<!DOCTYPE svg PUBLIC "-//W3C//DTD SVG 1.1//EN" "http://www.w3.org/Graphics/SVG/1.1/DTD/svg11.dtd">
<svg width="100%" height="100%" viewBox="0 0 76 77" version="1.1" xmlns="http://www.w3.org/2000/svg" xmlns:xlink="http://www.w3.org/1999/xlink" xml:space="preserve" xmlns:serif="http://www.serif.com/" style="fill-rule:evenodd;clip-rule:evenodd;stroke-linejoin:round;stroke-miterlimit:2;">
    <g transform="matrix(1,0,0,1,-963,-2492)">
        <path id="bg-ico" serif:id="bg ico" d="M1001,2492C1021.99,2492 1039,2509.01 1039,2530C1039,2550.99 1021.99,2568 1001,2568C980.013,2568 963,2550.99 963,2530C963,2509.01 980.013,2492 1001,2492Z" style="fill:rgb(35,35,35);"/>
        <path id="Www" d="M1001.5,2515C992.953,2515 986,2521.95 986,2530.5C986,2539.05 992.953,2546 1001.5,2546C1010.05,2546 1017,2539.05 1017,2530.5C1017,2521.95 1010.05,2515 1001.5,2515ZM1012.16,2524L1009.24,2524C1008.83,2522.35 1008.27,2520.86 1007.59,2519.59C1009.47,2520.64 1011.03,2522.17 1012.16,2524ZM1014,2530.5C1014,2531.71 1013.82,2532.89 1013.49,2534L1009.78,2534C1009.92,2532.88 1010,2531.71 1010,2530.5C1010,2529.29 1009.92,2528.12 1009.78,2527L1013.49,2527C1013.82,2528.11 1014,2529.28 1014,2530.5ZM989,2530.5C989,2529.28 989.182,2528.11 989.508,2527L993.216,2527C993.079,2528.12 993,2529.29 993,2530.5C993,2531.71 993.079,2532.88 993.216,2534L989.508,2534C989.182,2532.89 989,2531.71 989,2530.5ZM996,2530.5C996,2529.26 996.088,2528.1 996.236,2527L1000,2527L1000,2534L996.236,2534C996.088,2532.9 996,2531.73 996,2530.5ZM1003,2518.54C1004.24,2519.43 1005.4,2521.35 1006.15,2524L1003,2524L1003,2518.54ZM1000,2518.54L1000,2524L996.85,2524C997.601,2521.35 998.763,2519.43 1000,2518.54ZM1000,2537L1000,2542.45C998.763,2541.57 997.601,2539.64 996.85,2537L1000,2537ZM1003,2542.45L1003,2537L1006.15,2537C1005.4,2539.64 1004.24,2541.57 1003,2542.45ZM1003,2534L1003,2527L1006.76,2527C1006.91,2528.1 1007,2529.26 1007,2530.5C1007,2531.73 1006.91,2532.9 1006.76,2534L1003,2534ZM995.412,2519.59C994.729,2520.86 994.173,2522.35 993.765,2524L990.843,2524C991.964,2522.17 993.535,2520.64 995.412,2519.59ZM990.843,2537L993.765,2537C994.173,2538.65 994.729,2540.14 995.412,2541.41C993.535,2540.35 991.964,2538.83 990.843,2537ZM1007.59,2541.41C1008.27,2540.14 1008.83,2538.65 1009.24,2537L1012.16,2537C1011.03,2538.83 1009.47,2540.35 1007.59,2541.41Z" style="fill:white;fill-rule:nonzero;"/>
    </g>
</svg>
