<?xml version="1.0" encoding="UTF-8" standalone="no"?>
<!DOCTYPE svg PUBLIC "-//W3C//DTD SVG 1.1//EN" "http://www.w3.org/Graphics/SVG/1.1/DTD/svg11.dtd">
<svg width="100%" height="100%" viewBox="0 0 76 77" version="1.1" xmlns="http://www.w3.org/2000/svg" xmlns:xlink="http://www.w3.org/1999/xlink" xml:space="preserve" xmlns:serif="http://www.serif.com/" style="fill-rule:evenodd;clip-rule:evenodd;stroke-linejoin:round;stroke-miterlimit:2;">
    <g transform="matrix(1,0,0,1,-581,-2492)">
        <path id="bg-ico" serif:id="bg ico" d="M619,2492C639.987,2492 657,2509.01 657,2530C657,2550.99 639.987,2568 619,2568C598.013,2568 581,2550.99 581,2530C581,2509.01 598.013,2492 619,2492Z" style="fill:rgb(35,35,35);"/>
        <path id="Ecommerce" d="M636.726,2523.26L630.726,2536.26C630.25,2537.28 629.208,2538 628,2538L609,2538C607.343,2538 606,2536.66 606,2535L606,2520.12L602.44,2516.56C602.168,2516.29 602,2515.91 602,2515.5C602,2514.67 602.672,2514 603.5,2514C603.914,2514 604.289,2514.17 604.561,2514.44L609.121,2519L634,2519C635.656,2519 637,2520.34 637,2522C637,2522.45 636.902,2522.87 636.726,2523.26ZM609,2535L628,2535L631.694,2527L609,2527L609,2535ZM634,2522L609,2522L609,2524L633.078,2524L634.002,2522L634,2522ZM610,2540C611.657,2540 613,2541.34 613,2543C613,2544.66 611.657,2546 610,2546C608.343,2546 607,2544.66 607,2543C607,2541.34 608.343,2540 610,2540ZM626,2540C627.656,2540 629,2541.34 629,2543C629,2544.66 627.656,2546 626,2546C624.344,2546 623,2544.66 623,2543C623,2541.34 624.344,2540 626,2540Z" style="fill:white;"/>
    </g>
</svg>
