<?xml version="1.0" encoding="UTF-8" standalone="no"?>
<!DOCTYPE svg PUBLIC "-//W3C//DTD SVG 1.1//EN" "http://www.w3.org/Graphics/SVG/1.1/DTD/svg11.dtd">
<svg width="100%" height="100%" viewBox="0 0 230 40" version="1.1" xmlns="http://www.w3.org/2000/svg" xmlns:xlink="http://www.w3.org/1999/xlink" xml:space="preserve" xmlns:serif="http://www.serif.com/" style="fill-rule:evenodd;clip-rule:evenodd;stroke-linejoin:round;stroke-miterlimit:2;">
    <g transform="matrix(1,0,0,1,-38.0658,-61.9822)">
        <path id="logo" d="M74.599,85.305C71.736,80.417 71.152,79.95 69.787,79.129C67.766,77.914 64.43,77.304 61.189,79.148C57.948,81 56.818,84.151 56.868,86.49C56.907,88.066 57.024,88.797 59.886,93.688C62.743,98.571 63.328,99.04 64.692,99.862C66.713,101.071 70.049,101.686 73.295,99.837C76.536,97.994 77.662,94.834 77.611,92.498C77.572,90.921 77.455,90.193 74.599,85.305ZM139.496,88.572C139.497,92.082 141.68,93.859 144.68,93.859C146.351,93.859 148.149,93.097 149.436,91.787L152.61,94.452C150.466,96.903 147.681,97.92 144.764,97.92C140.309,97.92 135.124,95.801 135.124,87.009C135.124,78.673 139.88,75.969 144.084,75.969C148.884,75.969 153.039,79.478 153.039,85.017L153.039,88.572L139.496,88.572ZM118.068,88.572C118.069,92.082 120.252,93.859 123.252,93.859C124.923,93.859 126.721,93.097 128.008,91.787L131.182,94.452C129.038,96.903 126.248,97.92 123.335,97.92C118.875,97.92 113.691,95.801 113.691,87.009C113.691,78.673 118.446,75.969 122.651,75.969C127.451,75.969 131.605,79.478 131.605,85.017L131.605,88.572L118.068,88.572ZM158.307,72.713C159.766,70.086 163.068,67.295 167.874,67.295C172.668,67.295 175.97,70.086 177.424,72.713C178.415,74.485 178.755,75.375 178.755,82.61C178.755,89.839 178.415,90.729 177.424,92.504C175.97,95.128 172.668,97.92 167.874,97.92C163.068,97.92 159.766,95.128 158.307,92.504C157.327,90.729 156.981,89.839 156.981,82.61C156.981,75.375 157.327,74.485 158.307,72.713ZM254.449,88.572C254.451,92.082 256.628,93.859 259.634,93.859C261.304,93.859 263.103,93.097 264.39,91.787L267.564,94.452C265.42,96.903 262.635,97.92 259.723,97.92C255.263,97.92 250.073,95.801 250.073,87.009C250.073,78.673 254.834,75.969 259.038,75.969C263.827,75.969 267.992,79.478 267.992,85.017L267.992,88.572L254.449,88.572ZM188.138,97.664L183.767,97.664L183.767,76.222L188.138,76.222L188.138,78.505L188.227,78.505C189.597,76.81 191.568,75.969 193.885,75.969C197.271,75.969 201.13,78.546 201.13,83.412L201.13,97.664L196.758,97.664L196.758,84.896C196.758,81.97 194.915,80.28 192.47,80.28C189.987,80.28 188.138,81.97 188.138,84.896L188.138,97.664ZM101.863,97.664L89.005,97.664L89.005,67.55L100.838,67.55C106.791,67.55 109.876,70.889 109.876,75.628C109.876,78.126 108.935,80.533 105.377,82.102L105.377,82.181C108.718,82.945 110.349,86.077 110.349,89.119C110.349,94.322 106.448,97.662 101.863,97.664ZM232.503,97.664L228.127,97.664L228.127,76.222L232.503,76.222L232.503,78.505L232.581,78.505C233.957,76.81 235.928,75.969 238.245,75.969C241.63,75.969 245.489,78.546 245.489,83.412L245.489,97.664L241.118,97.664L241.118,84.896C241.118,81.97 239.28,80.28 236.83,80.28C234.347,80.28 232.503,81.97 232.503,84.896L232.503,97.664ZM222.346,97.664L217.975,97.664L217.975,76.222L222.346,76.222L222.346,97.664ZM214.288,97.664L212.356,97.664C209.182,97.664 206.782,96.309 206.782,92.46L206.782,67.55L211.159,67.55L211.159,92.125C211.159,93.096 211.714,93.602 212.785,93.603L214.288,93.603L214.288,97.664ZM73.802,93.449C73.63,94.614 72.967,95.911 71.486,96.752C70.01,97.593 68.534,97.518 67.432,97.081C66.017,96.513 65.449,96.076 63.01,91.899C60.571,87.731 60.471,87.028 60.677,85.536C60.85,84.374 61.518,83.077 62.993,82.236C64.469,81.393 65.945,81.47 67.047,81.912C68.462,82.473 69.03,82.912 71.463,87.086C73.908,91.259 74.014,91.96 73.802,93.449ZM55.042,88.918C53.41,90.529 51.516,90.529 50.102,89.13C48.682,87.726 48.682,85.863 50.314,84.248L51.272,83.31C50.458,83.148 49.501,82.778 47.852,81.918L47.763,82.011C44.667,85.066 45.207,89.056 47.691,91.506C50.174,93.958 54.217,94.493 57.313,91.438L57.408,91.344C56.54,89.721 56.161,88.776 55.999,87.976L55.042,88.918ZM100.744,84.3L93.632,84.3L93.632,93.35L100.744,93.35C104.179,93.35 105.716,91.196 105.716,88.825C105.716,86.457 104.18,84.301 100.744,84.3ZM163.151,91.149C164.098,92.334 165.685,93.35 167.874,93.35C170.056,93.35 171.643,92.334 172.585,91.149C173.782,89.625 174.127,88.784 174.127,82.61C174.127,76.436 173.782,75.59 172.585,74.062C171.643,72.878 170.056,71.864 167.874,71.864C165.685,71.864 164.098,72.878 163.151,74.062C161.954,75.59 161.609,76.436 161.609,82.61C161.609,88.784 161.954,89.625 163.151,91.149ZM148.667,85.017C148.539,81.761 146.651,80.027 144.084,80.027C141.506,80.027 139.579,81.761 139.496,85.017L148.667,85.017ZM263.621,85.017C263.487,81.761 261.605,80.027 259.038,80.027C256.46,80.027 254.528,81.761 254.449,85.017L263.621,85.017ZM127.234,85.017C127.106,81.761 125.223,80.027 122.651,80.027C120.078,80.027 118.151,81.761 118.068,85.017L127.234,85.017ZM60.215,78.189C62.086,74.988 61.462,71.699 60.237,69.705C59.402,68.35 58.928,67.776 53.972,64.954C49.027,62.135 48.281,62.017 46.683,61.984C44.322,61.932 41.12,63.039 39.249,66.243C37.378,69.446 38.001,72.732 39.227,74.727C40.056,76.073 40.535,76.65 45.486,79.475C50.436,82.294 51.177,82.412 52.781,82.445C55.142,82.5 58.338,81.39 60.215,78.189ZM100.32,71.611L93.632,71.611L93.632,80.239L100.32,80.239C103.661,80.239 105.248,78.291 105.248,75.928C105.248,73.596 103.662,71.612 100.32,71.611ZM42.044,72.026C41.599,70.936 41.521,69.482 42.373,68.026C43.23,66.569 44.539,65.908 45.72,65.74C47.234,65.531 47.941,65.635 52.168,68.043C56.4,70.455 56.846,71.01 57.419,72.403C57.865,73.494 57.937,74.95 57.085,76.406C56.233,77.862 54.919,78.527 53.738,78.692C52.229,78.898 51.516,78.796 47.29,76.387C43.063,73.977 42.612,73.419 42.044,72.026ZM61.1,69.185C61.646,70.075 62.075,71.199 62.275,72.449L62.503,72.227C64.135,70.614 66.028,70.614 67.443,72.016C68.863,73.414 68.863,75.282 67.231,76.892L67.008,77.115C68.273,77.316 69.409,77.736 70.311,78.277C70.367,78.307 70.411,78.337 70.461,78.368C71.38,77.2 71.826,75.939 71.892,74.697C72.232,74.906 72.627,75.029 73.056,75.029C74.276,75.029 75.261,74.06 75.261,72.859C75.261,71.658 74.276,70.685 73.056,70.685C72.321,70.685 71.664,71.043 71.263,71.6C70.923,70.88 70.444,70.213 69.854,69.633C69.269,69.053 68.596,68.581 67.866,68.243C68.423,67.847 68.79,67.204 68.79,66.476C68.79,65.276 67.811,64.303 66.591,64.303C65.377,64.303 64.386,65.276 64.386,66.476C64.386,66.896 64.514,67.289 64.725,67.622C63.467,67.688 62.186,68.13 61.006,69.037C61.039,69.086 61.067,69.136 61.1,69.185ZM222.346,71.864L217.975,71.864L217.975,67.55L222.346,67.55L222.346,71.864Z" style="fill:rgb(33,33,33);"/>
    </g>
</svg>
